# xmcd
#
# Track frame offsets:
#	183
#	8975
#	19875
#	30093
#	41720
#	52265
#	63515
#	73093
#	84858
#	99093
#	112625
#	122140
#	134938
#	149810
#	162925
#	172863
#	185570
#	196838
#	206825
#	218168
#	228350
#
# Disc length: 3231 seconds
#
# Revision: 1
# Processed by: cddbd v1.5.2PL0 Copyright (c) Steve Scherf et al.
# Submitted via: audiograbber 1.83.01
#
DISCID=2b0c9d15
DTITLE=Kid Thomas and Jerry McCain - Rockin' Harmonica Blues Men
DYEAR=1900
DGENRE=Blues
TTITLE0=Kid Thomas - Rockin' This Joint Tonite
TTITLE1=Kid Thomas - You Are An Angel
TTITLE2=Kid Thomas - Wail Baby Wail
TTITLE3=Kid Thomas - Five Long Years
TTITLE4=Kid Thomas - Lookie There
TTITLE5=Kid Thomas - Cozy Lounge Blues
TTITLE6=Kid Thomas - Willowbrook
TTITLE7=Kid Thomas - You Are An Angel
TTITLE8=Kid Thomas - The Hurt Is On
TTITLE9=Kid Thomas - I Love You So
TTITLE10=Jerry McCain - Cutie Named Judy
TTITLE11=Jerry McCain - Geronimo Rock and Roll
TTITLE12=Jerry McCain - It Must Be Love
TTITLE13=Jerry McCain - Rock and Roll Ball
TTITLE14=Jerry McCain - I Need Somebody To Love
TTITLE15=Jerry McCain - Turn Your Damper Down
TTITLE16=Jerry McCain - I'm A Ding Dong Daddy
TTITLE17=Jerry McCain - Choo Choo Rock
TTITLE18=Jerry McCain - Bell In My Heart
TTITLE19=Jerry McCain - My Next Door Neighbor
TTITLE20=Jerry McCain - Crying Like A Fool
EXTD=
EXTT0=
EXTT1=
EXTT2=
EXTT3=
EXTT4=
EXTT5=
EXTT6=
EXTT7=
EXTT8=
EXTT9=
EXTT10=
EXTT11=
EXTT12=
EXTT13=
EXTT14=
EXTT15=
EXTT16=
EXTT17=
EXTT18=
EXTT19=
EXTT20=
PLAYORDER=
